<svg width="368" height="95" viewBox="0 0 368 95" fill="none" xmlns="http://www.w3.org/2000/svg">
<g clip-path="url(#clip0_12293_490)">
<path d="M19.52 63.17L3.47 47.11L1.76 45.4C-0.579995 43.06 -0.579995 39.27 1.76 36.93L19.52 19.17C20.69 18 22.22 17.41 23.76 17.41C25.3 17.41 26.82 18 27.99 19.17L45.76 36.93C48.09 39.27 48.09 43.06 45.76 45.4L27.99 63.17C26.82 64.34 25.29 64.92 23.76 64.92C22.23 64.92 20.69 64.34 19.52 63.17ZM80.89 47.19L48.23 79.84C44.91 83.17 39.52 83.17 36.19 79.84L24.26 67.91C26.47 67.79 28.53 66.87 30.11 65.29L47.88 47.52C51.38 44.02 51.38 38.32 47.88 34.81L30.11 17.05C28.53 15.47 26.47 14.54 24.26 14.42L36.19 2.49C39.52 -0.83 44.91 -0.83 48.23 2.49L80.89 35.15C84.21 38.47 84.21 43.86 80.89 47.19Z" fill="white"/>
<path d="M138.38 64.47C137.71 65.17 136.91 65.51 136 65.49C135.08 65.47 134.26 65.12 133.53 64.41L119.54 51.13C118.87 50.49 118.54 49.62 118.54 48.8C118.54 47.98 118.86 47.15 119.5 46.52C120.72 45.31 122.68 45.28 123.94 46.45L138.09 59.6C139 60.42 139.44 61.3 139.42 62.21C139.41 63.01 139.05 63.77 138.38 64.47ZM138.56 23.97C137.15 25.44 115.26 45.99 112.11 48.95V62.14C112.11 63.07 111.8 63.86 111.17 64.51C110.55 65.16 109.77 65.49 108.84 65.49C107.85 65.49 107.05 65.17 106.42 64.51C105.79 63.86 105.48 63.07 105.48 62.14V8.33999C105.48 7.41999 105.79 6.62999 106.42 5.96999C107.05 5.31999 107.86 4.98999 108.84 4.98999C109.76 4.98999 110.54 5.30999 111.17 5.96999C111.8 6.61999 112.11 7.40999 112.11 8.33999V39.92L134.05 19.53C134.67 18.92 135.44 18.62 136.27 18.62C137.1 18.62 137.94 18.95 138.56 19.6C139.73 20.83 139.73 22.75 138.56 23.97ZM184.34 47.01C184.34 53.12 182.63 57.85 179.22 61.21C175.8 64.56 170.98 66.24 164.93 66.24C158.88 66.24 154.15 64.57 150.73 61.21C147.32 57.85 145.61 53.12 145.61 47.01V22.34C145.61 21.25 145.95 20.36 146.65 19.66C147.35 18.97 148.21 18.62 149.24 18.62C150.33 18.62 151.2 18.97 151.87 19.66C152.54 20.36 152.87 21.25 152.87 22.34V47.01C152.87 51.12 153.92 54.24 156.04 56.35C158.16 58.47 161.06 59.53 164.93 59.53C168.8 59.53 171.79 58.47 173.91 56.35C176.02 54.24 177.08 51.12 177.08 47.01V22.34C177.08 21.25 177.41 20.36 178.08 19.66C178.74 18.97 179.62 18.62 180.71 18.62C181.8 18.62 182.67 18.97 183.34 19.66C184 20.36 184.34 21.25 184.34 22.34V47.01ZM238.78 61.84C238.78 62.85 238.44 63.72 237.75 64.43C237.06 65.14 236.21 65.5 235.2 65.5C234.13 65.5 233.25 65.15 232.57 64.43C231.88 63.72 231.54 62.86 231.54 61.84V59.5C227.18 63.77 221.22 66.4 214.64 66.4C201.31 66.4 190.51 55.6 190.51 42.27C190.51 28.94 201.49 18.13 214.64 18.13C227.79 18.13 238.48 28.65 238.76 41.74H238.77C238.78 41.84 238.78 41.94 238.78 42.04V61.84ZM283.9 61.95C283.9 63.92 282.3 65.52 280.33 65.52C279.34 65.52 278.45 65.11 277.8 64.47C277.15 63.82 276.75 62.93 276.75 61.94V37.61C276.75 30.8 271.24 25.28 264.42 25.28C257.6 25.28 252.08 30.8 252.08 37.61V61.95C252.08 63.92 250.48 65.52 248.51 65.52C247.53 65.52 246.63 65.12 245.99 64.47C245.34 63.83 244.94 62.94 244.94 61.95V37.61C244.94 26.86 253.66 18.13 264.42 18.13C275.18 18.14 283.9 26.87 283.9 37.62V61.95ZM312.14 21.07C311.49 21.72 310.68 22.04 309.69 22.04H302.66V62.14C302.66 63.07 302.35 63.86 301.72 64.51C301.1 65.16 300.32 65.49 299.39 65.49C298.41 65.49 297.61 65.17 296.98 64.51C296.35 63.86 296.04 63.07 296.04 62.14V22.04H291.94C291.02 22.04 290.2 21.7 289.49 21.02C288.79 20.34 288.43 19.54 288.43 18.61C288.43 17.63 288.78 16.81 289.49 16.16C290.2 15.52 291.01 15.19 291.94 15.19H292.88C294.62 15.19 296.03 13.78 296.03 12.04V8.33999C296.03 7.41999 296.34 6.62999 296.97 5.96999C297.59 5.31999 298.4 4.98999 299.38 4.98999C300.3 4.98999 301.08 5.30999 301.71 5.96999C302.33 6.61999 302.65 7.40999 302.65 8.33999V15.19H309.68C310.66 15.19 311.48 15.53 312.13 16.21H312.14C312.79 16.89 313.11 17.72 313.11 18.71C313.11 19.63 312.79 20.42 312.14 21.07ZM324.49 62.23C324.49 63.16 324.18 63.95 323.55 64.6C322.93 65.25 322.15 65.58 321.22 65.58C320.23 65.58 319.43 65.26 318.8 64.6C318.17 63.95 317.86 63.16 317.86 62.23V25.95C317.86 25.02 318.17 24.23 318.8 23.57C319.43 22.92 320.24 22.59 321.22 22.59C322.14 22.59 322.92 22.92 323.55 23.57C324.17 24.23 324.49 25.02 324.49 25.95V62.23ZM321.18 16.08C319.35 16.08 317.86 14.6 317.86 12.76C317.86 10.92 319.35 9.43999 321.18 9.43999C323.01 9.43999 324.5 10.93 324.5 12.76C324.5 14.59 323.01 16.08 321.18 16.08ZM366.67 64.47C366 65.17 365.2 65.51 364.29 65.49C363.37 65.47 362.55 65.12 361.82 64.41L347.83 51.13C347.16 50.49 346.83 49.62 346.83 48.8C346.83 47.98 347.14 47.15 347.78 46.52C349 45.31 350.96 45.28 352.22 46.45L366.38 59.6C367.28 60.42 367.73 61.3 367.71 62.21C367.7 63.01 367.34 63.77 366.67 64.47ZM366.84 23.97C365.43 25.44 343.55 45.99 340.39 48.95V62.14C340.39 63.07 340.08 63.86 339.45 64.51C338.83 65.16 338.05 65.49 337.12 65.49C336.13 65.49 335.33 65.17 334.7 64.51C334.07 63.86 333.76 63.07 333.76 62.14V8.33999C333.76 7.41999 334.07 6.62999 334.7 5.96999C335.33 5.31999 336.14 4.98999 337.12 4.98999C338.04 4.98999 338.82 5.30999 339.45 5.96999C340.08 6.61999 340.39 7.40999 340.39 8.33999V39.92L362.33 19.53C362.95 18.92 363.72 18.62 364.55 18.62C365.38 18.62 366.22 18.95 366.84 19.6C368.01 20.83 368.01 22.75 366.84 23.97ZM214.64 25.38C205.32 25.38 197.75 32.95 197.75 42.27C197.75 51.59 205.31 59.16 214.64 59.16C223.97 59.16 231.53 51.59 231.53 42.27C231.53 32.95 223.96 25.38 214.64 25.38Z" fill="white"/>
</g>
<defs>
<clipPath id="clip0_12293_490">
<rect width="367.72" height="94.62" fill="white"/>
</clipPath>
</defs>
</svg>
