<?xml version="1.0" encoding="UTF-8"?>
<svg id="Capa_2" data-name="Capa 2" xmlns="http://www.w3.org/2000/svg" viewBox="0 0 262.24 61.41">
  <defs>
    <style>
      .cls-1 {
        fill: #005abe;
      }
    </style>
  </defs>
  <path class="cls-1" d="M32.9,59.48c-.67.7-1.47,1.04-2.38,1.02-.92-.02-1.74-.37-2.47-1.08l-13.99-13.28c-.67-.64-1-1.51-1-2.33s.32-1.65.96-2.28c1.22-1.21,3.18-1.24,4.44-.07l14.15,13.15c.91.82,1.35,1.7,1.33,2.61-.01.8-.37,1.56-1.04,2.26ZM33.08,18.98c-1.41,1.47-23.3,22.02-26.45,24.98v13.19c0,.93-.31,1.72-.94,2.37-.62.65-1.4.98-2.33.98-.99,0-1.79-.32-2.42-.98-.63-.65-.94-1.44-.94-2.37V3.35c0-.92.31-1.71.94-2.37.63-.65,1.44-.98,2.42-.98.92,0,1.7.32,2.33.98.63.65.94,1.44.94,2.37v31.58L28.57,14.54c.62-.61,1.39-.91,2.22-.91s1.67.33,2.29.98c1.17,1.23,1.17,3.15,0,4.37ZM78.86,42.02c0,6.11-1.71,10.84-5.12,14.2-3.42,3.35-8.24,5.03-14.29,5.03s-10.78-1.67-14.2-5.03c-3.41-3.36-5.12-8.09-5.12-14.2v-24.67c0-1.09.34-1.98,1.04-2.68.7-.69,1.56-1.04,2.59-1.04,1.09,0,1.96.35,2.63,1.04.67.7,1,1.59,1,2.68v24.67c0,4.11,1.05,7.23,3.17,9.34,2.12,2.12,5.02,3.18,8.89,3.18s6.86-1.06,8.98-3.18c2.11-2.11,3.17-5.23,3.17-9.34v-24.67c0-1.09.33-1.98,1-2.68.66-.69,1.54-1.04,2.63-1.04s1.96.35,2.63,1.04c.66.7,1,1.59,1,2.68v24.67ZM133.3,56.85c0,1.01-.34,1.88-1.03,2.59-.69.71-1.54,1.07-2.55,1.07-1.07,0-1.95-.35-2.63-1.07-.69-.71-1.03-1.57-1.03-2.59v-2.34c-4.36,4.27-10.32,6.9-16.9,6.9-13.33,0-24.13-10.8-24.13-24.13s10.98-24.14,24.13-24.14,23.84,10.52,24.12,23.61h.01c.01.1.01.2.01.3v19.8ZM178.42,56.96c0,1.97-1.6,3.57-3.57,3.57-.99,0-1.88-.41-2.53-1.05-.65-.65-1.05-1.54-1.05-2.53v-24.33c0-6.81-5.51-12.33-12.33-12.33s-12.34,5.52-12.34,12.33v24.34c0,1.97-1.6,3.57-3.57,3.57-.98,0-1.88-.4-2.52-1.05-.65-.64-1.05-1.53-1.05-2.52v-24.34c0-10.75,8.72-19.48,19.48-19.48h0c10.76.01,19.48,8.74,19.48,19.49v24.33ZM206.66,16.08c-.65.65-1.46.97-2.45.97h-7.03v40.1c0,.93-.31,1.72-.94,2.37-.62.65-1.4.98-2.33.98-.98,0-1.78-.32-2.41-.98-.63-.65-.94-1.44-.94-2.37V17.05h-4.1c-.92,0-1.74-.34-2.45-1.02-.7-.68-1.06-1.48-1.06-2.41,0-.98.35-1.8,1.06-2.45.71-.64,1.52-.97,2.45-.97h.94c1.74,0,3.15-1.41,3.15-3.15v-3.7c0-.92.31-1.71.94-2.37.62-.65,1.43-.98,2.41-.98.92,0,1.7.32,2.33.98.62.65.94,1.44.94,2.37v6.85h7.03c.98,0,1.8.34,2.45,1.02h.01c.65.68.97,1.51.97,2.5,0,.92-.32,1.71-.97,2.36ZM219.01,57.24c0,.93-.31,1.72-.94,2.37-.62.65-1.4.98-2.33.98-.99,0-1.79-.32-2.42-.98-.63-.65-.94-1.44-.94-2.37V20.96c0-.93.31-1.72.94-2.38.63-.65,1.44-.98,2.42-.98.92,0,1.7.33,2.33.98.62.66.94,1.45.94,2.38v36.28ZM215.7,11.09c-1.83,0-3.32-1.48-3.32-3.32s1.49-3.32,3.32-3.32,3.32,1.49,3.32,3.32-1.49,3.32-3.32,3.32ZM261.2,59.48c-.67.7-1.47,1.04-2.38,1.02-.92-.02-1.74-.37-2.47-1.08l-13.99-13.28c-.67-.64-1-1.51-1-2.33s.31-1.65.95-2.28c1.22-1.21,3.18-1.24,4.44-.07l14.16,13.15c.9.82,1.35,1.7,1.33,2.61-.01.8-.37,1.56-1.04,2.26ZM261.37,18.98c-1.41,1.47-23.29,22.02-26.45,24.98v13.19c0,.93-.31,1.72-.94,2.37-.62.65-1.4.98-2.33.98-.99,0-1.79-.32-2.42-.98-.63-.65-.94-1.44-.94-2.37V3.35c0-.92.31-1.71.94-2.37.63-.65,1.44-.98,2.42-.98.92,0,1.7.32,2.33.98.63.65.94,1.44.94,2.37v31.58l21.94-20.39c.62-.61,1.39-.91,2.22-.91s1.67.33,2.29.98c1.17,1.23,1.17,3.15,0,4.37ZM109.16,20.39c-9.32,0-16.89,7.57-16.89,16.89s7.56,16.89,16.89,16.89,16.89-7.57,16.89-16.89-7.57-16.89-16.89-16.89Z"/>
</svg>